<?xml version="1.0" encoding="UTF-8" standalone="no"?>
<!DOCTYPE svg PUBLIC "-//W3C//DTD SVG 1.1//EN" "http://www.w3.org/Graphics/SVG/1.1/DTD/svg11.dtd">
<svg width="100%" height="100%" viewBox="0 0 700 512" version="1.1" xmlns="http://www.w3.org/2000/svg" xmlns:xlink="http://www.w3.org/1999/xlink" xml:space="preserve" xmlns:serif="http://www.serif.com/" style="fill-rule:evenodd;clip-rule:evenodd;stroke-linejoin:round;stroke-miterlimit:2;">
    <g transform="matrix(1,0,0,1,-5530.324034,-316.325375)">
        <g transform="matrix(4.166667,0,0,4.166667,0,0)">
            <g transform="matrix(1,0,0,1,1478.1695,113.7079)">
                <path d="M0,-37.132C-0.057,-37.054 -2.535,-33.62 -5.742,-29.22C-9.178,-26.862 -12.764,-22.978 -15.945,-18.264C-18.996,-14.263 -23.625,-7.96 -27.29,-2.919L-27.391,-2.853C-33.018,0.958 -38.225,0.64 -40.55,-6.896C-40.551,-6.898 -40.302,-6.841 -39.867,-6.782C-37.91,-6.52 -32.168,-6.258 -28.286,-11.64C-24.002,-17.256 -19.722,-22.875 -15.432,-28.482C-13.376,-31.177 -11.292,-33.847 -9.237,-36.541C-6.709,-38.09 -1.072,-38.09 0,-37.132" style="fill:rgb(0,112,176);fill-rule:nonzero;"/>
            </g>
        </g>
        <g transform="matrix(4.166667,0,0,4.166667,0,0)">
            <g transform="matrix(1,0,0,1,1431.0435,114.1528)">
                <path d="M0,-20.259C-8.007,-5.749 3.033,0 8.197,0C8.546,0 8.868,-0.027 9.155,-0.078L8.995,-0.244C4.612,-4.769 2.732,-10.273 5.592,-15.67C2.732,-17.613 2.732,-17.613 0,-20.259" style="fill:rgb(82,158,201);fill-rule:nonzero;"/>
            </g>
        </g>
        <g transform="matrix(4.166667,0,0,4.166667,0,0)">
            <g transform="matrix(1,0,0,1,1485.6887,112.8543)">
                <path d="M0,-21.957C0,-21.952 -0.249,-22.01 -0.686,-22.068C-2.649,-22.329 -8.386,-22.59 -12.264,-17.212C-16.548,-11.596 -20.828,-5.978 -25.118,-0.366C-27.175,2.324 -29.258,4.999 -31.314,7.689C-33.84,9.237 -39.478,9.237 -40.551,8.28C-40.525,8.247 -40.007,7.53 -39.152,6.351C-37.201,3.652 -33.484,-1.467 -29.859,-6.398C-27.526,-9.565 -25.23,-12.656 -23.462,-14.98C-21.798,-17.45 -20.016,-19.693 -18.204,-21.607C-11.608,-28.583 -4.593,-31.194 -1.056,-24.548C-0.658,-23.801 -0.305,-22.939 0,-21.957" style="fill:rgb(222,94,77);fill-rule:nonzero;"/>
            </g>
        </g>
        <g transform="matrix(4.166667,0,0,4.166667,0,0)">
            <g transform="matrix(1,0,0,1,1484.0685,103.8172)">
                <path d="M0,-20.259C-0.349,-20.259 -0.673,-20.232 -0.961,-20.181L-0.799,-20.017C3.586,-15.491 5.465,-9.986 2.604,-4.591C5.465,-2.646 5.465,-2.646 8.196,0C16.203,-14.509 5.166,-20.259 0,-20.259" style="fill:rgb(240,199,191);fill-rule:nonzero;"/>
            </g>
        </g>
        <g transform="matrix(4.166667,0,0,4.166667,0,0)">
            <g transform="matrix(1,0,0,1,1347.6731,159.2067)">
                <path d="M0,-5.505L0.1,-5.633C0.1,-7.697 0.313,-9.771 -0.104,-11.823C-0.194,-12.272 -0.32,-12.72 -0.482,-13.15C-1.266,-15.224 -2.813,-16.455 -5.056,-16.769C-9.238,-17.358 -13.206,-16.757 -16.865,-14.612L-17.256,-14.403C-17.595,-15.142 -17.925,-15.862 -18.284,-16.646C-17.353,-17.041 -16.48,-17.451 -15.578,-17.788C-11.657,-19.261 -7.594,-19.974 -3.378,-19.769C-1.499,-19.678 0.377,-19.466 2.185,-18.917C5.8,-17.813 7.834,-15.38 8.322,-11.794C8.56,-10.036 8.636,-8.251 8.653,-6.479C8.708,-1.314 8.696,14.469 8.696,14.469L0.23,14.469L0.23,9.847C-1.125,11.216 -2.505,12.314 -4.247,13.205C-7.151,14.469 -10.084,14.469 -11.881,14.469C-14.151,14.383 -16.286,14.194 -17.878,12.528C-18.356,12.025 -18.787,11.448 -19.093,10.835C-19.995,9.026 -20.494,7.103 -20.379,5.074C-20.196,1.852 -18.708,-0.677 -15.923,-2.468C-14.299,-3.509 -12.477,-4.114 -10.608,-4.587C-8.337,-5.158 -6.023,-5.461 -3.676,-5.502C-2.443,-5.522 -1.211,-5.505 0,-5.505M0.266,-4.293C0.057,-4.312 -0.068,-4.339 -0.194,-4.331C-1.552,-4.249 -2.918,-4.207 -4.273,-4.067C-5.717,-3.92 -7.122,-3.565 -8.455,-2.98C-9.97,-2.315 -11.132,-1.297 -11.823,0.182C-12.272,1.147 -12.52,2.162 -12.649,3.203C-12.848,4.816 -12.763,6.424 -12.293,7.989C-11.819,9.566 -10.72,10.501 -9.016,10.715C-8.416,10.79 -7.808,10.835 -7.206,10.859C-4.705,10.959 -2.472,10.264 -0.51,8.746C0.04,8.32 0.279,7.825 0.277,7.13C0.252,3.551 0.266,-0.028 0.266,-3.602L0.266,-4.293Z" style="fill:rgb(0,112,176);fill-rule:nonzero;"/>
            </g>
        </g>
        <g transform="matrix(4.166667,0,0,4.166667,0,0)">
            <g transform="matrix(1,0,0,1,1416.2054,159.1403)">
                <path d="M0,-1.927C0,-1.479 -0.006,-1.091 0,-0.702C0.05,1.786 0.496,4.22 1.327,6.603C1.905,8.265 2.937,9.668 4.675,10.615C5.93,11.299 7.321,11.613 8.79,11.713C12.265,11.946 15.481,11.22 18.503,9.761C18.694,9.672 18.881,9.579 19.072,9.489L19.265,9.47C19.546,9.922 19.84,10.396 20.156,10.9L19.74,11.161C17.429,12.451 14.981,13.46 12.295,14.011C8.182,14.856 4.125,14.667 0.166,13.401C-3.029,12.384 -5.357,10.501 -6.784,7.817C-8.25,5.055 -9.052,2.149 -9.044,-0.892C-9.03,-4.252 -8.039,-7.416 -6.123,-10.342C-3.931,-13.692 -0.532,-15.584 3.777,-16.299C6.547,-16.757 9.322,-16.783 12.085,-16.212C17.177,-15.156 20.218,-12.376 21.332,-7.979C21.774,-6.241 21.841,-4.487 21.59,-2.725C21.5,-2.087 21.296,-1.93 20.533,-1.927L0,-1.927ZM13.764,-3.681C13.781,-3.848 13.799,-3.937 13.799,-4.026C13.799,-5.244 13.828,-6.462 13.789,-7.681C13.75,-9.087 13.566,-10.484 13.012,-11.819C12.549,-12.931 11.802,-13.839 10.572,-14.414C8.132,-15.552 4.755,-14.958 3.048,-13.069C2.034,-11.947 1.376,-10.67 0.927,-9.308C0.421,-7.77 0.204,-6.191 0.021,-4.607C-0.025,-4.206 -0.061,-3.803 -0.112,-3.327C4.543,-3.448 9.118,-3.565 13.764,-3.681" style="fill:rgb(0,112,176);fill-rule:nonzero;"/>
            </g>
        </g>
        <g transform="matrix(4.166667,0,0,4.166667,0,0)">
            <g transform="matrix(1,0,0,1,1389.011,197.0867)">
                <path d="M0,-55.274C3.938,-57.289 6.16,-57.184 8.596,-57.184C8.613,-56.915 8.405,-29.947 8.399,-17.435C8.399,-15.004 8.337,-12.575 7.992,-10.158C7.783,-8.693 7.507,-7.242 7.026,-5.84C5.7,-1.981 3.134,0.363 -0.618,1.199C-4.262,2.015 -7.856,1.757 -11.385,0.463L-12.083,0.067C-11.895,-0.284 -11.722,-0.649 -11.517,-0.992C-11.244,-1.447 -11.014,-1.536 -10.529,-1.34C-8.883,-0.668 -7.173,-0.493 -5.43,-0.563C-3.188,-0.652 -1.772,-1.757 -1.028,-4.022C-0.334,-6.13 -0.076,-8.325 -0.051,-10.548C-0.018,-13.2 -0.004,-15.853 0,-18.506C0.018,-28.409 0,-55.274 0,-55.274" style="fill:rgb(0,112,176);fill-rule:nonzero;"/>
            </g>
        </g>
        <g transform="matrix(4.166667,0,0,4.166667,0,0)">
            <g transform="matrix(1,0,0,1,1455.3912,159.1159)">
                <path d="M0,-1.926C0,-1.478 -0.007,-1.09 0,-0.701C0.05,1.787 0.497,4.221 1.327,6.603C1.904,8.266 2.936,9.669 4.675,10.616C5.929,11.3 7.32,11.613 8.791,11.714C12.265,11.947 15.481,11.221 18.503,9.762C18.694,9.673 18.881,9.58 19.07,9.49L19.265,9.469C19.546,9.923 19.84,10.396 20.157,10.901L19.737,11.162C17.429,12.453 14.981,13.461 12.294,14.012C8.182,14.858 4.125,14.669 0.166,13.402C-3.029,12.383 -5.358,10.502 -6.784,7.818C-8.251,5.056 -9.057,2.151 -9.044,-0.891C-9.03,-4.252 -8.039,-7.415 -6.124,-10.341C-3.931,-13.691 -0.532,-15.583 3.777,-16.299C6.547,-16.755 9.322,-16.784 12.085,-16.211C17.178,-15.155 20.218,-12.374 21.332,-7.978C21.774,-6.24 21.841,-4.485 21.59,-2.724C21.501,-2.088 21.295,-1.929 20.534,-1.926L0,-1.926ZM13.764,-3.68C13.781,-3.847 13.799,-3.936 13.799,-4.026C13.799,-5.243 13.828,-6.461 13.788,-7.679C13.749,-9.086 13.566,-10.483 13.012,-11.818C12.55,-12.93 11.801,-13.838 10.572,-14.412C8.132,-15.551 4.754,-14.957 3.047,-13.068C2.034,-11.946 1.376,-10.669 0.927,-9.307C0.421,-7.769 0.204,-6.19 0.021,-4.606C-0.025,-4.205 -0.061,-3.801 -0.112,-3.326C4.543,-3.447 9.117,-3.564 13.764,-3.68" style="fill:rgb(0,112,176);fill-rule:nonzero;"/>
            </g>
        </g>
        <g transform="matrix(4.166667,0,0,4.166667,0,0)">
            <g transform="matrix(-1,0,0,1,1368.3615,121.7916)">
                <path d="M-8.449,51.852L0,51.852L0,2.418C-2.44,0.065 -8.449,0 -8.449,0L-8.449,51.852Z" style="fill:rgb(0,112,176);fill-rule:nonzero;"/>
            </g>
        </g>
        <g transform="matrix(4.166667,0,0,4.166667,0,0)">
            <g transform="matrix(-1,0,0,1,1486.64,121.7916)">
                <path d="M-8.448,51.852L0,51.852L0,2.418C-2.44,0.065 -8.448,0 -8.448,0L-8.448,51.852Z" style="fill:rgb(0,112,176);fill-rule:nonzero;"/>
            </g>
        </g>
        <g transform="matrix(4.166667,0,0,4.166667,0,0)">
            <g transform="matrix(0,-1,-1,0,1393.3388,126.784)">
                <path d="M-4.327,-4.327C-6.636,-4.327 -8.507,-2.39 -8.507,0.001C-8.507,2.389 -6.636,4.327 -4.327,4.327C-2.018,4.327 -0.147,2.389 -0.147,0.001C-0.147,-2.39 -2.018,-4.327 -4.327,-4.327" style="fill:rgb(0,112,176);fill-rule:nonzero;"/>
            </g>
        </g>
    </g>
</svg>
