<?xml version="1.0" encoding="UTF-8" standalone="no"?>
<svg width="100%" height="100%" viewBox="0 0 986 499" version="1.1" xmlns="http://www.w3.org/2000/svg" xmlns:xlink="http://www.w3.org/1999/xlink" xml:space="preserve" style="fill-rule:evenodd;clip-rule:evenodd;stroke-linejoin:round;stroke-miterlimit:2;">
    <g transform="matrix(1,0,0,1,-4975.846853,-2000.78375)">
        <g>
            <g transform="matrix(4.166667,0,0,4.166667,5154.934583,2048.588333)">
                <path d="M0,70.481C-6.949,70.481 -13.499,69.15 -19.47,66.525C-25.821,63.732 -31.162,59.62 -35.344,54.303C-40.354,47.934 -42.995,40.442 -42.981,32.639C-42.963,22.311 -38.775,14.993 -34.134,10.824C-29.082,6.284 -13.391,2.256 -4.418,0C-9.168,6.124 -16.234,14.643 -17.628,23.173C-18.406,27.933 -16.437,31.112 -13.726,34.48C-10.993,37.874 -7.135,40.148 -2.569,41.055L-2.517,41.066L-2.464,41.074C-0.22,41.422 2.067,41.599 4.333,41.599C8.85,41.599 13.319,40.909 17.617,39.549L44.566,31.197C45.122,31.025 45.699,30.934 46.281,30.933L46.301,30.933C54.001,30.933 61.183,34.774 65.522,41.209C65.767,41.572 66.015,41.945 66.267,42.331L68.666,45.994L37.023,60.48C29.164,64.078 19.655,67.995 8.716,69.772C5.819,70.243 2.887,70.481 0,70.481" style="fill:white;fill-rule:nonzero;"/>
            </g>
            <g transform="matrix(4.166667,0,0,4.166667,5674.34375,2000.78375)">
                <path d="M0,107.839C-9.72,107.839 -19.343,102.039 -28.6,90.601C-36.069,81.372 -41.958,70.122 -44.788,64.716C-49.941,54.872 -55.269,44.694 -63.087,36.625C-69.052,30.469 -76.825,27.079 -84.974,27.079C-87.471,27.079 -89.996,27.397 -92.48,28.024C-98.831,29.627 -103.258,31.815 -106.085,37.568C-107.007,39.445 -108.161,41.2 -109.509,42.799C-109.852,43.205 -110.21,43.612 -110.57,43.997C-111.854,45.37 -113.592,46.231 -115.464,46.409C-115.464,46.409 -129.322,47.265 -135.226,40.181C-136.644,38.217 -137.062,35.703 -136.356,33.386L-136.141,32.679C-131.457,15.993 -117.833,4.12 -99.696,0.918C-96.245,0.309 -92.745,0 -89.295,0C-69.893,0 -52.018,9.545 -40.253,26.187C-34.753,33.967 -30.465,41.872 -26.318,49.516C-19.55,61.991 -13.157,73.775 -2.525,82.785C1.394,86.107 5.456,87.721 9.894,87.721C10.548,87.721 11.214,87.685 11.888,87.612C14.15,87.37 16.316,86.567 18.236,85.347L33.576,75.604C32.757,86.353 28.559,93.268 19.96,100.609C15.57,104.357 11.915,105.487 6.271,107.023C4.032,107.632 2.097,107.839 0,107.839" style="fill:white;fill-rule:nonzero;"/>
            </g>
            <g transform="matrix(4.166667,0,0,4.166667,5813.3325,2106.519167)">
                <path d="M0,94.247C-5.756,94.247 -37.579,87.163 -37.579,87.163L-31.176,86.611C-25.113,86.594 -20.027,85.872 -13.828,82.625C-11.442,81.375 -9.339,79.814 -7.444,78.381C-2.66,74.76 0.59,70.786 2.408,67.275C6.581,59.214 6.417,53.083 5.945,49.811C4.735,41.417 -3.496,36.542 -11.97,31.268C-19.413,26.636 -33.212,23.586 -44.836,24.607C-47.427,24.835 -54.157,20.947 -55.438,18.944L-66.405,3.611L-57.539,1.728C-52.141,0.582 -46.355,0 -40.34,0C-23.899,0 -6.878,4.427 6.358,12.146C22.139,21.348 32.005,34.484 34.892,50.135C37.48,64.167 33.091,77.574 23.152,85.998C16.876,91.317 8.654,94.247 0,94.247" style="fill:white;fill-rule:nonzero;"/>
            </g>
        </g>
    </g>
</svg>
