<?xml version="1.0" encoding="UTF-8" standalone="no"?>
<svg width="100%" height="100%" viewBox="0 0 776 783" version="1.1" xmlns="http://www.w3.org/2000/svg" xmlns:xlink="http://www.w3.org/1999/xlink" xml:space="preserve" style="fill-rule:evenodd;clip-rule:evenodd;stroke-linejoin:round;stroke-miterlimit:2;">
    <g transform="matrix(1,0,0,1,-3612.2572,-1858.529346)">
        <g>
            <g transform="matrix(4.166667,0,0,4.166667,4383.295833,2541.204583)">
                <path d="M0,-135.996L-45.191,0.813C-51.057,18.57 -70.209,28.213 -87.966,22.346L-95.829,19.749C-95.829,19.749 -84.329,-23.131 -74.749,-47.385C-72.677,-52.63 -69.729,-57.482 -66.04,-61.748C-66.024,-61.766 -66.008,-61.785 -65.992,-61.803C-63.501,-64.685 -61.049,-67.597 -58.694,-70.469C-48.118,-83.502 -36.016,-99.244 -26.446,-117.174L-26.426,-117.209L-26.408,-117.245C-24.386,-121.292 -24.573,-125.792 -26.923,-129.593C-29.265,-133.382 -33.414,-135.735 -37.749,-135.735C-39.721,-135.735 -41.658,-135.268 -43.505,-134.347L-43.572,-134.313C-51.57,-130.07 -63.325,-123.2 -83.4,-107.585C-87.763,-104.161 -92.223,-100.507 -96.655,-96.727C-97.069,-96.374 -97.485,-96.018 -97.903,-95.66C-99.021,-94.699 -100.223,-93.836 -101.505,-93.108C-101.512,-93.104 -101.519,-93.1 -101.526,-93.096C-109.068,-88.826 -180.063,-64.707 -180.063,-64.707L-183.227,-73.783C-189.142,-90.749 -180.183,-109.296 -163.218,-115.211L-27.122,-162.658C-23.228,-164.014 -19.061,-164.209 -15.066,-163.224C-11.372,-162.314 -7.984,-160.422 -5.271,-157.754C-2.559,-155.085 -0.611,-151.732 0.362,-148.053C1.413,-144.075 1.288,-139.905 0,-135.996" style="fill:white;fill-rule:nonzero;"/>
            </g>
            <g transform="matrix(4.166667,0,0,4.166667,4098.93625,2037.861667)">
                <path d="M0,57.05C-2.638,60.103 -5.319,63.121 -8.026,66.104C-11.808,70.436 -17.787,72.142 -23.581,71.119C-34.999,69.083 -43.539,58.654 -43.071,47.514C-42.916,44.286 -41.706,40.829 -39.8,38.444C-38.806,37.094 -36.891,35.515 -35.647,34.369C-32.627,31.658 -29.571,28.979 -26.476,26.342C-22.159,22.66 -17.771,19.059 -13.314,15.562C-0.88,5.89 12.082,-3.46 26.07,-10.878C34.523,-15.092 43.347,-6.127 39.172,2.226C30.328,18.795 19.02,33.936 7.238,48.456C4.867,51.35 2.451,54.216 0,57.05" style="fill:white;fill-rule:nonzero;"/>
            </g>
            <g transform="matrix(4.166667,0,0,4.166667,4262.155,2266.2975)">
                <path d="M0,-52.599C-8.845,-36.03 -20.152,-20.888 -31.934,-6.369C-34.306,-3.475 -36.722,-0.608 -39.172,2.225C-41.811,5.278 -44.491,8.297 -47.199,11.279C-50.98,15.611 -56.96,17.317 -62.753,16.294C-74.172,14.258 -82.712,3.829 -82.243,-7.31C-82.089,-10.539 -80.878,-13.996 -78.973,-16.38C-77.979,-17.73 -76.064,-19.31 -74.819,-20.456C-71.799,-23.166 -68.743,-25.845 -65.648,-28.482C-61.331,-32.164 -56.943,-35.765 -52.486,-39.263C-40.052,-48.935 -27.09,-58.284 -13.102,-65.703C-4.649,-69.916 4.175,-60.951 0,-52.599" style="fill:white;fill-rule:nonzero;"/>
            </g>
        </g>
    </g>
</svg>
