<?xml version="1.0" encoding="UTF-8" standalone="no"?>
<svg width="100%" height="100%" viewBox="0 0 1005 640" version="1.1" xmlns="http://www.w3.org/2000/svg" xmlns:xlink="http://www.w3.org/1999/xlink" xml:space="preserve" style="fill-rule:evenodd;clip-rule:evenodd;stroke-linejoin:round;stroke-miterlimit:2;">
    <g transform="matrix(1,0,0,1,-560.140833,-1930.428753)">
        <g>
            <g transform="matrix(4.166667,0,0,4.166667,1026.5825,2172.22625)">
                <path d="M0,83.078C-0.689,83.926 -1.426,84.747 -2.212,85.539C-3.06,86.389 -3.937,87.185 -4.838,87.929C-5.264,88.273 -5.715,88.621 -6.166,88.937C-7.972,90.267 -9.858,91.381 -11.819,92.285C-12.776,92.734 -13.758,93.133 -14.741,93.477C-18.298,94.724 -22.04,95.363 -25.783,95.363C-27.483,95.363 -29.155,95.228 -30.826,94.962C-31.277,94.91 -31.701,94.831 -32.127,94.751C-33.695,94.459 -35.233,94.035 -36.747,93.504C-38.234,93.001 -39.719,92.362 -41.126,91.621C-42.135,91.088 -47.949,86.92 -49.144,85.752L-49.25,85.648L-111.946,23.524L-90.019,1.596C-76.192,-12.232 -53.789,-12.285 -39.896,1.478L-25.889,15.355L-24.668,16.568L-56.481,46.133C-59.435,48.444 -60.568,52.235 -59.374,55.798C-58.179,59.351 -54.983,61.682 -51.228,61.736C-50.957,61.74 -50.681,61.743 -50.396,61.743C-48.436,61.742 -46.201,61.653 -43.835,61.557C-41.065,61.447 -38.201,61.332 -35.291,61.332C-25.64,61.332 -19.729,62.758 -17.709,65.585L-11.334,74.454C-7.842,79.348 -4.112,82.194 0,83.078" style="fill:white;fill-rule:nonzero;"/>
            </g>
            <g transform="matrix(4.166667,0,0,4.166667,1564.655,2361.24375)">
                <path d="M0,-74.945L-104.445,19.674C-104.529,19.75 -104.616,19.822 -104.706,19.887C-113.464,26.21 -119.848,32.605 -125.875,32.887L-125.877,32.887L-125.877,32.888C-129.345,33.049 -132.696,31.183 -136.31,26.114L-142.695,17.234C-149.074,8.3 -170.094,11.406 -180.292,11.258C-183.733,11.207 -185.129,6.873 -182.461,4.792C-182.379,4.731 -182.3,4.664 -182.224,4.596L-150.169,-25.193L-79.418,-90.945C-61.073,-107.994 -32.526,-107.471 -14.817,-89.762L0,-74.945Z" style="fill:white;fill-rule:nonzero;"/>
            </g>
        </g>
    </g>
</svg>
