<?xml version="1.0" encoding="UTF-8" standalone="no"?>
<svg width="100%" height="100%" viewBox="0 0 570 842" version="1.1" xmlns="http://www.w3.org/2000/svg" xmlns:xlink="http://www.w3.org/1999/xlink" xml:space="preserve" style="fill-rule:evenodd;clip-rule:evenodd;stroke-linejoin:round;stroke-miterlimit:2;">
    <g transform="matrix(1,0,0,1,-6652.7075,-1829.39)">
        <g>
            <g transform="matrix(4.166667,0,0,4.166667,6971.022083,2672.381667)">
                <path d="M0,-170.977C-0.125,-149.199 -0.538,-89.315 -0.554,-58.434C-0.554,-51.05 -0.739,-43.675 -1.766,-36.332C-2.387,-31.886 -3.213,-27.477 -4.646,-23.222C-7.081,-15.995 -10.924,-10.517 -16.133,-6.786C-19.372,-4.465 -23.139,-2.819 -27.427,-1.846C-38.287,0.635 -48.999,-0.148 -59.515,-4.078L-61.596,-5.282C-61.036,-6.346 -60.521,-7.455 -59.911,-8.5C-59.099,-9.878 -58.41,-10.15 -56.966,-9.553C-52.061,-7.512 -46.963,-6.982 -41.768,-7.193C-38.456,-7.328 -35.752,-8.219 -33.595,-9.92C-31.396,-11.653 -29.767,-14.226 -28.648,-17.697C-26.579,-24.102 -25.811,-30.768 -25.738,-37.519C-25.639,-45.571 -25.596,-53.627 -25.585,-61.683C-25.538,-88.235 -25.574,-154.938 -25.584,-170.197C-20.627,-171.127 -15.516,-171.612 -10.29,-171.612C-6.805,-171.612 -3.371,-171.396 0,-170.977" style="fill:white;fill-rule:nonzero;"/>
            </g>
            <g transform="matrix(4.166667,0,0,4.166667,6841.699167,2588.355417)">
                <path d="M0,-79.997C-0.056,-67.936 -0.098,-51.952 -0.102,-43.794C-0.102,-38.32 -0.239,-32.851 -1.001,-27.408C-1.462,-24.111 -2.074,-20.842 -3.136,-17.687C-6.065,-8.999 -11.735,-3.72 -20.026,-1.84C-28.077,0 -36.018,-0.581 -43.815,-3.495L-45.358,-4.387C-44.943,-5.177 -44.561,-5.998 -44.108,-6.772C-43.506,-7.795 -42.996,-7.996 -41.924,-7.553C-38.288,-6.042 -34.509,-5.647 -30.657,-5.805C-25.703,-6.006 -22.575,-8.492 -20.931,-13.592C-19.398,-18.339 -18.827,-23.282 -18.774,-28.286C-18.701,-34.256 -18.668,-40.229 -18.661,-46.202C-18.654,-49.83 -18.65,-54.47 -18.647,-59.694C-18.644,-64.026 -18.643,-68.76 -18.643,-73.653C-12.779,-76.475 -6.532,-78.622 0,-79.997" style="fill:white;fill-rule:nonzero;"/>
            </g>
            <g transform="matrix(4.166667,0,0,4.166667,7222.497917,2142.615417)">
                <path d="M0,103.513L-1.942,104.752C-11.703,108.724 -21.569,109.339 -31.495,106.478C-41.718,103.552 -48.582,95.818 -51.94,83.265C-53.156,78.708 -53.812,73.997 -54.28,69.251C-55.051,61.417 -55.048,53.561 -54.875,45.703C-54.625,34.102 -54.335,11.436 -54.047,-5.826C-45.878,-4.642 -38.097,-2.26 -30.888,1.135C-31.06,8.944 -31.226,16.515 -31.375,23.383C-31.537,30.883 -31.677,37.544 -31.785,42.753C-31.965,51.328 -32.113,59.904 -32.211,68.477C-32.303,75.663 -31.752,82.774 -30.001,89.631C-28.124,96.997 -24.323,100.653 -18.186,101.076C-13.414,101.409 -8.715,100.945 -4.157,98.874C-2.815,98.268 -2.189,98.57 -1.474,100.056C-0.938,101.179 -0.49,102.369 0,103.513" style="fill:white;fill-rule:nonzero;"/>
            </g>
            <g transform="matrix(0,-4.166667,-4.166667,0,6912.95875,1828.550417)">
                <path d="M-12.896,-12.896C-19.91,-12.896 -25.59,-7.122 -25.59,0.002C-25.59,7.123 -19.91,12.896 -12.896,12.896C-5.882,12.896 -0.202,7.123 -0.202,0.002C-0.202,-7.122 -5.882,-12.896 -12.896,-12.896" style="fill:white;fill-rule:nonzero;"/>
            </g>
            <g transform="matrix(0,-4.166667,-4.166667,0,6791.337917,2167.994583)">
                <path d="M-9.561,-9.561C-14.761,-9.561 -18.971,-5.281 -18.971,0.002C-18.971,5.28 -14.761,9.561 -9.561,9.561C-4.361,9.561 -0.15,5.28 -0.15,0.002C-0.15,-5.281 -4.361,-9.561 -9.561,-9.561" style="fill:white;fill-rule:nonzero;"/>
            </g>
            <g transform="matrix(0,4.166667,4.166667,0,7050.751667,2010.102917)">
                <path d="M11.86,-11.86C18.309,-11.86 23.534,-6.551 23.534,0.002C23.534,6.549 18.309,11.86 11.86,11.86C5.41,11.86 0.186,6.549 0.186,0.002C0.186,-6.551 5.41,-11.86 11.86,-11.86" style="fill:white;fill-rule:nonzero;"/>
            </g>
        </g>
    </g>
</svg>
