<?xml version="1.0" encoding="UTF-8" standalone="no"?>
<svg width="100%" height="100%" viewBox="0 0 773 808" version="1.1" xmlns="http://www.w3.org/2000/svg" xmlns:xlink="http://www.w3.org/1999/xlink" xml:space="preserve" style="fill-rule:evenodd;clip-rule:evenodd;stroke-linejoin:round;stroke-miterlimit:2;">
    <g transform="matrix(1,0,0,1,-2144.85125,-1846.05375)">
        <g>
            <g transform="matrix(4.166667,0,0,4.166667,2472.967083,2323.762083)">
                <path d="M0,61.506C-4.306,61.922 -8.543,60.141 -11.223,56.746C-20.927,44.452 -28.075,26.128 -30.103,-0.366C2.299,0.406 -9.573,-0.416 9.373,0.21C11.165,19.38 20.099,35.573 33.694,47.465C26.108,52.575 17.46,56.761 8.093,59.824C5.497,60.673 2.775,61.238 0,61.506" style="fill:white;fill-rule:nonzero;"/>
            </g>
            <g transform="matrix(4.166667,0,0,4.166667,2910.9625,2671.290833)">
                <path d="M0,-82.784C-4.366,-40.113 -22.249,-18.738 -42.422,-9.697C-65.34,0.575 -91.213,-5.074 -103.58,-13.505C-105.152,-14.576 -108.182,-16.856 -109.315,-17.97L-107.046,-18.189C-104.147,-18.469 -101.285,-19.058 -98.517,-19.963C-89.088,-23.047 -80.028,-27.376 -71.943,-32.887C-54.811,-44.567 -42.063,-61.554 -39.479,-83.217C-20.522,-83.359 -32.413,-82.84 0,-82.784" style="fill:white;fill-rule:nonzero;"/>
            </g>
            <g transform="matrix(4.166667,0,0,4.166667,2582.846667,2371.252083)">
                <path d="M0,-61.506C4.306,-61.922 8.543,-60.141 11.223,-56.746C20.927,-44.452 28.075,-26.128 30.103,0.366C-2.299,-0.406 9.573,0.416 -9.373,-0.21C-11.165,-19.38 -20.099,-35.573 -33.694,-47.465C-26.108,-52.575 -17.46,-56.761 -8.093,-59.824C-5.497,-60.673 -2.775,-61.238 0,-61.506" style="fill:white;fill-rule:nonzero;"/>
            </g>
            <g transform="matrix(4.166667,0,0,4.166667,2144.85125,2023.723333)">
                <path d="M0,82.784C4.366,40.113 22.249,18.738 42.422,9.697C65.34,-0.575 91.213,5.075 103.58,13.505C105.152,14.576 108.182,16.856 109.315,17.97L107.046,18.189C104.147,18.469 101.285,19.058 98.517,19.963C89.088,23.047 80.027,27.376 71.943,32.887C54.811,44.568 42.063,61.554 39.479,83.217C20.522,83.359 32.413,82.84 0,82.784" style="fill:white;fill-rule:nonzero;"/>
            </g>
            <g transform="matrix(0,-4.166667,-4.166667,0,2832.7925,2116.287917)">
                <path d="M-20.341,-20.341C-31.575,-20.341 -40.682,-11.234 -40.682,0C-40.682,11.234 -31.575,20.341 -20.341,20.341C-9.107,20.341 0,11.234 0,0C0,-11.234 -9.107,-20.341 -20.341,-20.341" style="fill:white;fill-rule:nonzero;"/>
            </g>
            <g transform="matrix(0,-4.166667,-4.166667,0,2422.204167,1846.05375)">
                <path d="M-20.341,-20.341C-31.575,-20.341 -40.682,-11.234 -40.682,0C-40.682,11.234 -31.575,20.341 -20.341,20.341C-9.107,20.341 0,11.234 0,0C0,-11.234 -9.107,-20.341 -20.341,-20.341" style="fill:white;fill-rule:nonzero;"/>
            </g>
        </g>
    </g>
</svg>
